<svg xmlns="http://www.w3.org/2000/svg" xmlns:xlink="http://www.w3.org/1999/xlink" width="500" zoomAndPan="magnify" viewBox="0 0 375 374.999991" height="500" preserveAspectRatio="xMidYMid meet" version="1.0"><defs><clipPath id="9fd4622aef"><path d="M 12.484375 62.960938 L 261.484375 62.960938 L 261.484375 311.960938 L 12.484375 311.960938 Z M 12.484375 62.960938 " clip-rule="nonzero"/></clipPath><clipPath id="a96b143b95"><path d="M 68.734375 62.960938 L 205.304688 62.960938 C 220.222656 62.960938 234.53125 68.886719 245.078125 79.4375 C 255.628906 89.984375 261.554688 104.292969 261.554688 119.210938 L 261.554688 255.785156 C 261.554688 270.703125 255.628906 285.007812 245.078125 295.558594 C 234.53125 306.105469 220.222656 312.03125 205.304688 312.03125 L 68.734375 312.03125 C 53.816406 312.03125 39.507812 306.105469 28.960938 295.558594 C 18.410156 285.007812 12.484375 270.703125 12.484375 255.785156 L 12.484375 119.210938 C 12.484375 104.292969 18.410156 89.984375 28.960938 79.4375 C 39.507812 68.886719 53.816406 62.960938 68.734375 62.960938 Z M 68.734375 62.960938 " clip-rule="nonzero"/></clipPath><clipPath id="4b838ddda6"><path d="M 12.484375 62.960938 L 261.484375 62.960938 L 261.484375 272.960938 L 12.484375 272.960938 Z M 12.484375 62.960938 " clip-rule="nonzero"/></clipPath><clipPath id="9ee4cc5b3b"><path d="M 68.734375 62.960938 L 205.304688 62.960938 C 220.222656 62.960938 234.53125 68.890625 245.078125 79.4375 C 255.628906 89.984375 261.554688 104.292969 261.554688 119.210938 L 261.554688 216.980469 C 261.554688 231.902344 255.628906 246.207031 245.078125 256.757812 C 234.53125 267.304688 220.222656 273.230469 205.304688 273.230469 L 68.734375 273.230469 C 53.816406 273.230469 39.507812 267.304688 28.960938 256.757812 C 18.410156 246.207031 12.484375 231.902344 12.484375 216.980469 L 12.484375 119.210938 C 12.484375 104.292969 18.410156 89.984375 28.960938 79.4375 C 39.507812 68.890625 53.816406 62.960938 68.734375 62.960938 Z M 68.734375 62.960938 " clip-rule="nonzero"/></clipPath><clipPath id="20ddd236c1"><path d="M 23.132812 105.9375 L 42.789062 105.9375 L 42.789062 152.699219 L 23.132812 152.699219 Z M 23.132812 105.9375 " clip-rule="nonzero"/></clipPath><clipPath id="9f5134827f"><path d="M 27.632812 105.9375 L 38.289062 105.9375 C 39.480469 105.9375 40.625 106.410156 41.46875 107.253906 C 42.3125 108.097656 42.789062 109.242188 42.789062 110.4375 L 42.789062 148.136719 C 42.789062 149.332031 42.3125 150.476562 41.46875 151.320312 C 40.625 152.164062 39.480469 152.636719 38.289062 152.636719 L 27.632812 152.636719 C 26.4375 152.636719 25.292969 152.164062 24.449219 151.320312 C 23.605469 150.476562 23.132812 149.332031 23.132812 148.136719 L 23.132812 110.4375 C 23.132812 109.242188 23.605469 108.097656 24.449219 107.253906 C 25.292969 106.410156 26.4375 105.9375 27.632812 105.9375 Z M 27.632812 105.9375 " clip-rule="nonzero"/></clipPath><clipPath id="26be7f9e87"><path d="M 0.132812 0.9375 L 19.789062 0.9375 L 19.789062 47.640625 L 0.132812 47.640625 Z M 0.132812 0.9375 " clip-rule="nonzero"/></clipPath><clipPath id="dfead4ca62"><path d="M 4.632812 0.9375 L 15.289062 0.9375 C 16.480469 0.9375 17.625 1.410156 18.46875 2.253906 C 19.3125 3.097656 19.789062 4.242188 19.789062 5.4375 L 19.789062 43.136719 C 19.789062 44.332031 19.3125 45.476562 18.46875 46.320312 C 17.625 47.164062 16.480469 47.636719 15.289062 47.636719 L 4.632812 47.636719 C 3.4375 47.636719 2.292969 47.164062 1.449219 46.320312 C 0.605469 45.476562 0.132812 44.332031 0.132812 43.136719 L 0.132812 5.4375 C 0.132812 4.242188 0.605469 3.097656 1.449219 2.253906 C 2.292969 1.410156 3.4375 0.9375 4.632812 0.9375 Z M 4.632812 0.9375 " clip-rule="nonzero"/></clipPath><clipPath id="c002131537"><rect x="0" width="20" y="0" height="48"/></clipPath><clipPath id="3ce17741e3"><path d="M 230.664062 105.9375 L 250.320312 105.9375 L 250.320312 152.699219 L 230.664062 152.699219 Z M 230.664062 105.9375 " clip-rule="nonzero"/></clipPath><clipPath id="d4c4c2fe69"><path d="M 235.164062 105.9375 L 245.820312 105.9375 C 247.011719 105.9375 248.15625 106.410156 249 107.253906 C 249.847656 108.097656 250.320312 109.242188 250.320312 110.4375 L 250.320312 148.136719 C 250.320312 149.332031 249.847656 150.476562 249 151.320312 C 248.15625 152.164062 247.011719 152.636719 245.820312 152.636719 L 235.164062 152.636719 C 233.96875 152.636719 232.824219 152.164062 231.980469 151.320312 C 231.136719 150.476562 230.664062 149.332031 230.664062 148.136719 L 230.664062 110.4375 C 230.664062 109.242188 231.136719 108.097656 231.980469 107.253906 C 232.824219 106.410156 233.96875 105.9375 235.164062 105.9375 Z M 235.164062 105.9375 " clip-rule="nonzero"/></clipPath><clipPath id="654f2ac69f"><path d="M 0.664062 0.9375 L 20.320312 0.9375 L 20.320312 47.640625 L 0.664062 47.640625 Z M 0.664062 0.9375 " clip-rule="nonzero"/></clipPath><clipPath id="341a76de43"><path d="M 5.164062 0.9375 L 15.820312 0.9375 C 17.011719 0.9375 18.15625 1.410156 19 2.253906 C 19.847656 3.097656 20.320312 4.242188 20.320312 5.4375 L 20.320312 43.136719 C 20.320312 44.332031 19.847656 45.476562 19 46.320312 C 18.15625 47.164062 17.011719 47.636719 15.820312 47.636719 L 5.164062 47.636719 C 3.96875 47.636719 2.824219 47.164062 1.980469 46.320312 C 1.136719 45.476562 0.664062 44.332031 0.664062 43.136719 L 0.664062 5.4375 C 0.664062 4.242188 1.136719 3.097656 1.980469 2.253906 C 2.824219 1.410156 3.96875 0.9375 5.164062 0.9375 Z M 5.164062 0.9375 " clip-rule="nonzero"/></clipPath><clipPath id="1a04d53bf9"><rect x="0" width="21" y="0" height="48"/></clipPath><clipPath id="7d0d736298"><path d="M 303.777344 160.433594 L 360.777344 160.433594 L 360.777344 311.933594 L 303.777344 311.933594 Z M 303.777344 160.433594 " clip-rule="nonzero"/></clipPath><clipPath id="069fcbf044"><path d="M 314.277344 160.433594 L 350.511719 160.433594 C 353.296875 160.433594 355.964844 161.539062 357.9375 163.507812 C 359.90625 165.476562 361.011719 168.148438 361.011719 170.933594 L 361.011719 301.527344 C 361.011719 304.3125 359.90625 306.984375 357.9375 308.953125 C 355.964844 310.921875 353.296875 312.027344 350.511719 312.027344 L 314.277344 312.027344 C 311.492188 312.027344 308.820312 310.921875 306.851562 308.953125 C 304.882812 306.984375 303.777344 304.3125 303.777344 301.527344 L 303.777344 170.933594 C 303.777344 168.148438 304.882812 165.476562 306.851562 163.507812 C 308.820312 161.539062 311.492188 160.433594 314.277344 160.433594 Z M 314.277344 160.433594 " clip-rule="nonzero"/></clipPath><clipPath id="4a7eb73219"><path d="M 317.652344 221 L 334 221 L 334 249 L 317.652344 249 Z M 317.652344 221 " clip-rule="nonzero"/></clipPath><clipPath id="7a63e9ec8b"><path d="M 331 223 L 346.902344 223 L 346.902344 251 L 331 251 Z M 331 223 " clip-rule="nonzero"/></clipPath><clipPath id="d709791a2c"><path d="M 322 219.042969 L 343 219.042969 L 343 253.542969 L 322 253.542969 Z M 322 219.042969 " clip-rule="nonzero"/></clipPath><clipPath id="92caa5055e"><path d="M 263 203 L 276 203 L 276 214 L 263 214 Z M 263 203 " clip-rule="nonzero"/></clipPath><clipPath id="5a9436bd96"><path d="M 262.515625 208.1875 L 265.585938 202.933594 L 275.703125 208.84375 L 272.632812 214.097656 Z M 262.515625 208.1875 " clip-rule="nonzero"/></clipPath><clipPath id="8fb951754e"><path d="M 263.273438 206.890625 L 264.828125 204.230469 C 265.027344 203.886719 265.359375 203.636719 265.742188 203.535156 C 266.128906 203.433594 266.535156 203.488281 266.878906 203.691406 L 274.402344 208.085938 C 274.746094 208.285156 274.996094 208.613281 275.097656 209 C 275.199219 209.382812 275.144531 209.792969 274.941406 210.136719 L 273.386719 212.800781 C 273.1875 213.140625 272.859375 213.390625 272.472656 213.492188 C 272.089844 213.59375 271.679688 213.539062 271.335938 213.335938 L 263.8125 208.945312 C 263.46875 208.742188 263.21875 208.414062 263.117188 208.03125 C 263.015625 207.644531 263.074219 207.234375 263.273438 206.890625 Z M 263.273438 206.890625 " clip-rule="nonzero"/></clipPath><clipPath id="a21799d26b"><path d="M 0 0.28125 L 12.28125 0.28125 L 12.28125 10.601562 L 0 10.601562 Z M 0 0.28125 " clip-rule="nonzero"/></clipPath><clipPath id="e9e05a7396"><path d="M -0.484375 5.1875 L 2.585938 -0.0664062 L 12.703125 5.84375 L 9.632812 11.097656 Z M -0.484375 5.1875 " clip-rule="nonzero"/></clipPath><clipPath id="97950a6389"><path d="M 0.273438 3.890625 L 1.828125 1.230469 C 2.027344 0.886719 2.359375 0.636719 2.742188 0.535156 C 3.128906 0.433594 3.535156 0.488281 3.878906 0.691406 L 11.402344 5.085938 C 11.746094 5.285156 11.996094 5.613281 12.097656 6 C 12.199219 6.382812 12.144531 6.792969 11.941406 7.136719 L 10.386719 9.800781 C 10.1875 10.140625 9.859375 10.390625 9.472656 10.492188 C 9.089844 10.59375 8.679688 10.539062 8.335938 10.335938 L 0.8125 5.945312 C 0.46875 5.742188 0.21875 5.414062 0.117188 5.03125 C 0.015625 4.644531 0.0742188 4.234375 0.273438 3.890625 Z M 0.273438 3.890625 " clip-rule="nonzero"/></clipPath><clipPath id="cf1093abaf"><rect x="0" width="13" y="0" height="11"/></clipPath><clipPath id="6fddd9775c"><path d="M 259.261719 199.484375 L 265.75 199.484375 L 265.75 212.339844 L 259.261719 212.339844 Z M 259.261719 199.484375 " clip-rule="nonzero"/></clipPath><clipPath id="3569e6ecca"><path d="M 265.75 200.984375 L 265.75 210.832031 C 265.75 211.230469 265.59375 211.613281 265.3125 211.894531 C 265.03125 212.175781 264.648438 212.332031 264.25 212.332031 L 260.761719 212.332031 C 260.363281 212.332031 259.980469 212.175781 259.699219 211.894531 C 259.417969 211.613281 259.261719 211.230469 259.261719 210.832031 L 259.261719 200.984375 C 259.261719 200.585938 259.417969 200.203125 259.699219 199.921875 C 259.980469 199.640625 260.363281 199.484375 260.761719 199.484375 L 264.25 199.484375 C 264.648438 199.484375 265.03125 199.640625 265.3125 199.921875 C 265.59375 200.203125 265.75 200.585938 265.75 200.984375 Z M 265.75 200.984375 " clip-rule="nonzero"/></clipPath><clipPath id="bb866d9863"><path d="M 0.261719 0.484375 L 6.75 0.484375 L 6.75 13.339844 L 0.261719 13.339844 Z M 0.261719 0.484375 " clip-rule="nonzero"/></clipPath><clipPath id="30873ec01a"><path d="M 6.75 1.984375 L 6.75 11.832031 C 6.75 12.230469 6.59375 12.613281 6.3125 12.894531 C 6.03125 13.175781 5.648438 13.332031 5.25 13.332031 L 1.761719 13.332031 C 1.363281 13.332031 0.980469 13.175781 0.699219 12.894531 C 0.417969 12.613281 0.261719 12.230469 0.261719 11.832031 L 0.261719 1.984375 C 0.261719 1.585938 0.417969 1.203125 0.699219 0.921875 C 0.980469 0.640625 1.363281 0.484375 1.761719 0.484375 L 5.25 0.484375 C 5.648438 0.484375 6.03125 0.640625 6.3125 0.921875 C 6.59375 1.203125 6.75 1.585938 6.75 1.984375 Z M 6.75 1.984375 " clip-rule="nonzero"/></clipPath><clipPath id="0bdbf9ad60"><rect x="0" width="7" y="0" height="14"/></clipPath></defs><g clip-path="url(#9fd4622aef)"><g clip-path="url(#a96b143b95)"><path stroke-linecap="butt" transform="matrix(0.75, 0, 0, 0.75, 12.484648, 62.962057)" fill="none" stroke-linejoin="miter" d="M 74.999636 -0.00149222 L 257.093386 -0.00149222 C 276.984011 -0.00149222 296.062136 7.899549 310.129845 21.967258 C 324.192345 36.029758 332.093386 55.107883 332.093386 74.998508 L 332.093386 257.097467 C 332.093386 276.988092 324.192345 296.061008 310.129845 310.128717 C 296.062136 324.191217 276.984011 332.092258 257.093386 332.092258 L 74.999636 332.092258 C 55.109011 332.092258 36.030886 324.191217 21.968386 310.128717 C 7.900677 296.061008 -0.000364214 276.988092 -0.000364214 257.097467 L -0.000364214 74.998508 C -0.000364214 55.107883 7.900677 36.029758 21.968386 21.967258 C 36.030886 7.899549 55.109011 -0.00149222 74.999636 -0.00149222 Z M 74.999636 -0.00149222 " stroke="#ffffff" stroke-width="16" stroke-opacity="1" stroke-miterlimit="4"/></g></g><g clip-path="url(#4b838ddda6)"><g clip-path="url(#9ee4cc5b3b)"><path stroke-linecap="butt" transform="matrix(0.75, 0, 0, 0.75, 12.484648, 62.962546)" fill="none" stroke-linejoin="miter" d="M 74.999636 -0.00214502 L 257.093386 -0.00214502 C 276.984011 -0.00214502 296.062136 7.904105 310.129845 21.966605 C 324.192345 36.029105 332.093386 55.10723 332.093386 74.997855 L 332.093386 205.35723 C 332.093386 225.253064 324.192345 244.32598 310.129845 258.393689 C 296.062136 272.456189 276.984011 280.35723 257.093386 280.35723 L 74.999636 280.35723 C 55.109011 280.35723 36.030886 272.456189 21.968386 258.393689 C 7.900677 244.32598 -0.000364214 225.253064 -0.000364214 205.35723 L -0.000364214 74.997855 C -0.000364214 55.10723 7.900677 36.029105 21.968386 21.966605 C 36.030886 7.904105 55.109011 -0.00214502 74.999636 -0.00214502 Z M 74.999636 -0.00214502 " stroke="#ffffff" stroke-width="20" stroke-opacity="1" stroke-miterlimit="4"/></g></g><path stroke-linecap="butt" transform="matrix(0.75, -0.000000000000000186, 0.000000000000000186, 0.75, 23.131832, 284.700889)" fill="none" stroke-linejoin="miter" d="M 0.00130699 2.997774 L 302.917994 2.997774 " stroke="#ffffff" stroke-width="6" stroke-opacity="1" stroke-miterlimit="4"/><g clip-path="url(#20ddd236c1)"><g clip-path="url(#9f5134827f)"><g transform="matrix(1, 0, 0, 1, 23, 105)"><g clip-path="url(#c002131537)"><g clip-path="url(#26be7f9e87)"><g clip-path="url(#dfead4ca62)"><path fill="#ffffff" d="M 0.132812 0.9375 L 19.789062 0.9375 L 19.789062 47.621094 L 0.132812 47.621094 Z M 0.132812 0.9375 " fill-opacity="1" fill-rule="nonzero"/></g></g></g></g></g></g><g clip-path="url(#3ce17741e3)"><g clip-path="url(#d4c4c2fe69)"><g transform="matrix(1, 0, 0, 1, 230, 105)"><g clip-path="url(#1a04d53bf9)"><g clip-path="url(#654f2ac69f)"><g clip-path="url(#341a76de43)"><path fill="#ffffff" d="M 0.664062 0.9375 L 20.320312 0.9375 L 20.320312 47.621094 L 0.664062 47.621094 Z M 0.664062 0.9375 " fill-opacity="1" fill-rule="nonzero"/></g></g></g></g></g></g><g clip-path="url(#7d0d736298)"><g clip-path="url(#069fcbf044)"><path stroke-linecap="butt" transform="matrix(0.75, 0, 0, 0.75, 303.776733, 160.434085)" fill="none" stroke-linejoin="miter" d="M 14.000816 -0.00065562 L 62.313319 -0.00065562 C 66.026861 -0.00065562 69.584153 1.473303 72.214361 4.098303 C 74.839362 6.723303 76.31332 10.285803 76.31332 13.999345 L 76.31332 188.124357 C 76.31332 191.837899 74.839362 195.400399 72.214361 198.025399 C 69.584153 200.650399 66.026861 202.124358 62.313319 202.124358 L 14.000816 202.124358 C 10.287274 202.124358 6.724774 200.650399 4.099774 198.025399 C 1.474773 195.400399 0.000814931 191.837899 0.000814931 188.124357 L 0.000814931 13.999345 C 0.000814931 10.285803 1.474773 6.723303 4.099774 4.098303 C 6.724774 1.473303 10.287274 -0.00065562 14.000816 -0.00065562 Z M 14.000816 -0.00065562 " stroke="#ffffff" stroke-width="20" stroke-opacity="1" stroke-miterlimit="4"/></g></g><g clip-path="url(#4a7eb73219)"><path fill="#ffffff" d="M 320.117188 236.234375 C 320.117188 229.714844 325.230469 224.378906 331.660156 223.992188 L 333.519531 221.558594 C 333.148438 221.527344 332.777344 221.5 332.394531 221.5 C 324.257812 221.5 317.660156 228.097656 317.660156 236.234375 C 317.660156 241.625 320.5625 246.328125 324.886719 248.894531 L 325.523438 246.40625 C 322.261719 244.195312 320.117188 240.460938 320.117188 236.234375 Z M 320.117188 236.234375 " fill-opacity="1" fill-rule="nonzero"/></g><g clip-path="url(#7a63e9ec8b)"><path fill="#ffffff" d="M 339.855469 223.542969 L 339.179688 226.007812 C 342.488281 228.210938 344.675781 231.96875 344.675781 236.234375 C 344.675781 242.753906 339.558594 248.089844 333.132812 248.476562 L 331.269531 250.914062 C 331.640625 250.941406 332.015625 250.96875 332.394531 250.96875 C 340.53125 250.96875 347.128906 244.371094 347.128906 236.234375 C 347.128906 230.820312 344.203125 226.105469 339.855469 223.542969 Z M 339.855469 223.542969 " fill-opacity="1" fill-rule="nonzero"/></g><g clip-path="url(#d709791a2c)"><path fill="#ffffff" d="M 342.21875 232.550781 L 334.851562 232.550781 L 335.574219 229.902344 L 336.953125 224.84375 L 337.601562 222.464844 L 338.535156 219.042969 L 336.253906 222.027344 L 334.617188 224.167969 L 330.53125 229.507812 L 322.570312 239.917969 L 329.9375 239.917969 L 329.222656 242.550781 L 327.835938 247.625 L 327.1875 250.007812 L 326.253906 253.425781 L 328.535156 250.441406 L 330.171875 248.304688 L 334.3125 242.890625 Z M 342.21875 232.550781 " fill-opacity="1" fill-rule="nonzero"/></g><path stroke-linecap="butt" transform="matrix(0.75, 0, 0, 0.75, 272.387185, 209.185942)" fill="none" stroke-linejoin="miter" d="M -0.000621684 2.002077 L 41.853548 2.002077 " stroke="#ffffff" stroke-width="4" stroke-opacity="1" stroke-miterlimit="4"/><g clip-path="url(#92caa5055e)"><g clip-path="url(#5a9436bd96)"><g clip-path="url(#8fb951754e)"><g transform="matrix(1, 0, 0, 1, 263, 203)"><g clip-path="url(#cf1093abaf)"><g clip-path="url(#a21799d26b)"><g clip-path="url(#e9e05a7396)"><g clip-path="url(#97950a6389)"><path fill="#ffffff" d="M -0.484375 5.1875 L 2.585938 -0.0664062 L 12.703125 5.84375 L 9.632812 11.097656 Z M -0.484375 5.1875 " fill-opacity="1" fill-rule="nonzero"/></g></g></g></g></g></g></g></g><g clip-path="url(#6fddd9775c)"><g clip-path="url(#3569e6ecca)"><g transform="matrix(1, 0, 0, 1, 259, 199)"><g clip-path="url(#0bdbf9ad60)"><g clip-path="url(#bb866d9863)"><g clip-path="url(#30873ec01a)"><path fill="#ffffff" d="M 6.75 0.484375 L 6.75 13.339844 L 0.261719 13.339844 L 0.261719 0.484375 Z M 6.75 0.484375 " fill-opacity="1" fill-rule="nonzero"/></g></g></g></g></g></g></svg>