<svg xmlns="http://www.w3.org/2000/svg" xmlns:xlink="http://www.w3.org/1999/xlink" width="500" zoomAndPan="magnify" viewBox="0 0 375 374.999991" height="500" preserveAspectRatio="xMidYMid meet" version="1.0"><defs><g/><clipPath id="4d5547caa3"><path d="M 27 149 L 97 149 L 97 228 L 27 228 Z M 27 149 " clip-rule="nonzero"/></clipPath><clipPath id="19ee83a9ee"><path d="M -43.8125 184.234375 L 58.265625 77.414062 L 165.085938 179.492188 L 63.007812 286.308594 Z M -43.8125 184.234375 " clip-rule="nonzero"/></clipPath><clipPath id="2138f0319f"><path d="M -453.695312 264.628906 L 6.433594 -216.867188 L 487.929688 243.257812 L 27.800781 724.753906 Z M -453.695312 264.628906 " clip-rule="nonzero"/></clipPath><clipPath id="115f659dc9"><path d="M -13.183594 191.824219 L 60.4375 114.785156 L 97.429688 150.136719 L 23.8125 227.175781 Z M -13.183594 191.824219 " clip-rule="nonzero"/></clipPath><clipPath id="e32e4ce9ed"><path d="M -21.117188 103.800781 L 101.425781 103.796875 L 101.425781 229.003906 L -21.117188 229.007812 Z M -21.117188 103.800781 " clip-rule="nonzero"/></clipPath><clipPath id="4945143594"><path d="M -315.445312 212.5 L 53.882812 -173.980469 L 440.363281 195.347656 L 71.035156 581.832031 Z M -315.445312 212.5 " clip-rule="nonzero"/></clipPath><clipPath id="ca3e5d8184"><path d="M -126.28125 15.941406 L 250.671875 15.9375 L 250.675781 392.894531 L -126.28125 392.894531 Z M -126.28125 15.941406 " clip-rule="nonzero"/></clipPath></defs><rect x="-37.5" width="450" fill="#0A0F26" y="-37.499999" height="449.999989" fill-opacity="1"/><rect x="-37.5" width="450" fill="#0A0F26" y="-37.499999" height="449.999989" fill-opacity="1"/><g fill="#00478f" fill-opacity="1"><g transform="translate(22.145511, 229.124985)"><g><path d="M 72.671875 -80.015625 L 72.671875 -61.84375 L 29.34375 -16 L 74.671875 -16 L 74.671875 0 L 5.671875 0 L 5.671875 -18.5 L 48.5 -63.671875 L 48.5 -64.015625 L 7.671875 -64.015625 L 7.671875 -80.015625 Z M 72.671875 -80.015625 "/></g></g></g><g fill="#00478f" fill-opacity="1"><g transform="translate(102.489256, 229.124985)"><g><path d="M 47.5 -81.015625 C 59.613281 -81.015625 69.03125 -77.207031 75.75 -69.59375 C 82.476562 -61.976562 85.898438 -51.503906 86.015625 -38.171875 L 86.015625 -34 L 22.671875 -34 C 22.671875 -27.5625 25.253906 -22.144531 30.421875 -17.75 C 35.585938 -13.363281 41.894531 -11.113281 49.34375 -11 C 57.5625 -11 64.785156 -14.945312 71.015625 -22.84375 L 82.34375 -14.171875 C 73.894531 -3.390625 62.226562 2 47.34375 2 C 35.226562 2 25.472656 -1.859375 18.078125 -9.578125 C 10.691406 -17.304688 6.890625 -27.28125 6.671875 -39.5 C 6.671875 -51.28125 10.472656 -61.085938 18.078125 -68.921875 C 25.691406 -76.753906 35.5 -80.785156 47.5 -81.015625 Z M 70.015625 -46 C 69.785156 -53.445312 67.671875 -59.144531 63.671875 -63.09375 C 59.671875 -67.039062 54.171875 -69.015625 47.171875 -69.015625 C 42.503906 -69.015625 38.304688 -67.875 34.578125 -65.59375 C 30.859375 -63.3125 27.941406 -60.363281 25.828125 -56.75 C 23.722656 -53.144531 22.671875 -49.5625 22.671875 -46 Z M 70.015625 -46 "/></g></g><g transform="translate(195.167499, 229.124985)"><g><path d="M 50.34375 -81.015625 C 53.113281 -81.015625 55.332031 -80.679688 57 -80.015625 L 56.34375 -63.84375 C 53.445312 -64.625 50.945312 -65.015625 48.84375 -65.015625 C 34.0625 -65.015625 26.5625 -56.789062 26.34375 -40.34375 L 26.34375 0 L 11.328125 0 L 11.328125 -79.015625 L 26.34375 -79.015625 L 26.34375 -66.84375 L 26.671875 -66.84375 C 28.671875 -71.0625 31.890625 -74.476562 36.328125 -77.09375 C 40.773438 -79.707031 45.445312 -81.015625 50.34375 -81.015625 Z M 50.34375 -81.015625 "/></g></g></g><g fill="#00478f" fill-opacity="1"><g transform="translate(253.841488, 229.124985)"><g><path d="M 49.5 -81.015625 C 61.175781 -81.015625 71.066406 -76.984375 79.171875 -68.921875 C 87.285156 -60.867188 91.398438 -51.0625 91.515625 -39.5 C 91.515625 -27.832031 87.457031 -18.050781 79.34375 -10.15625 C 71.226562 -2.269531 61.28125 1.78125 49.5 2 C 37.945312 2 28.113281 -2 20 -10 C 11.882812 -18 7.71875 -27.832031 7.5 -39.5 C 7.5 -50.945312 11.523438 -60.671875 19.578125 -68.671875 C 27.640625 -76.671875 37.613281 -80.785156 49.5 -81.015625 Z M 23.5 -39.5 C 23.5 -31.394531 25.890625 -24.8125 30.671875 -19.75 C 35.453125 -14.695312 41.726562 -12.113281 49.5 -12 C 57.394531 -12 63.675781 -14.523438 68.34375 -19.578125 C 73.007812 -24.640625 75.398438 -31.28125 75.515625 -39.5 C 75.515625 -47.613281 73.175781 -54.195312 68.5 -59.25 C 63.832031 -64.3125 57.445312 -66.898438 49.34375 -67.015625 C 41.445312 -67.015625 35.164062 -64.398438 30.5 -59.171875 C 25.832031 -53.953125 23.5 -47.394531 23.5 -39.5 Z M 23.5 -39.5 "/></g></g></g><g clip-path="url(#4d5547caa3)"><g clip-path="url(#19ee83a9ee)"><g clip-path="url(#2138f0319f)"><g clip-path="url(#115f659dc9)"><g clip-path="url(#e32e4ce9ed)"><g clip-path="url(#4945143594)"><g clip-path="url(#ca3e5d8184)"><path fill="#25a592" d="M 94.863281 149.132812 L 94.871094 167.398438 L 51.3125 213.480469 L 96.871094 213.484375 L 96.875 229.566406 L 27.515625 229.566406 L 27.515625 210.96875 L 70.5625 165.5625 L 70.566406 165.21875 L 29.523438 165.21875 L 29.523438 149.132812 Z M 94.863281 149.132812 " fill-opacity="1" fill-rule="nonzero"/></g></g></g></g></g></g></g><path stroke-linecap="butt" transform="matrix(0, 0.75, -0.75, 0, 27.826261, 133.526125)" fill="none" stroke-linejoin="miter" d="M 0.00162522 0.497514 L 130.866217 0.497514 " stroke="#0A0F26" stroke-width="1" stroke-opacity="1" stroke-miterlimit="4"/><path stroke-linecap="butt" transform="matrix(0.518245, -0.542146, 0.542146, 0.518245, 21.602578, 229.4752)" fill="none" stroke-linejoin="miter" d="M 0.00103426 0.998656 L 154.52466 1.000518 " stroke="#0A0F26" stroke-width="2" stroke-opacity="1" stroke-miterlimit="4"/><path stroke-linecap="butt" transform="matrix(0.509975, 0.549932, -0.549932, 0.509975, 270.281149, 152.012582)" fill="none" stroke-linejoin="miter" d="M 0.000183032 1.00153 L 152.534142 1.000426 " stroke="#0A0F26" stroke-width="2" stroke-opacity="1" stroke-miterlimit="4"/><path stroke-linecap="butt" transform="matrix(0, 0.75, -0.75, 0, 223.022495, 149.227358)" fill="none" stroke-linejoin="miter" d="M -0.00106093 0.998744 L 152.530199 0.998744 " stroke="#0A0F26" stroke-width="2" stroke-opacity="1" stroke-miterlimit="4"/><path stroke-linecap="butt" transform="matrix(0.75, 0, 0, 0.75, 90.884934, 194.74799)" fill="none" stroke-linejoin="miter" d="M 0.00238002 0.997472 L 141.674264 0.997472 " stroke="#0A0F26" stroke-width="2" stroke-opacity="1" stroke-miterlimit="4"/></svg>