<svg xmlns="http://www.w3.org/2000/svg" xmlns:xlink="http://www.w3.org/1999/xlink" width="500" zoomAndPan="magnify" viewBox="0 0 375 149.999998" height="200" preserveAspectRatio="xMidYMid meet" version="1.0"><defs><g/><clipPath id="1f2e4ef4ab"><rect x="0" width="331" y="0" height="150"/></clipPath><clipPath id="d2260f178c"><path d="M 33 36 L 103 36 L 103 115 L 33 115 Z M 33 36 " clip-rule="nonzero"/></clipPath><clipPath id="a646a448bc"><path d="M -38.082031 71.539062 L 63.476562 -34.738281 L 169.753906 66.824219 L 68.195312 173.097656 Z M -38.082031 71.539062 " clip-rule="nonzero"/></clipPath><clipPath id="c4e3776dff"><path d="M -446.660156 151.863281 L 12.433594 -328.550781 L 492.84375 130.542969 L 33.753906 610.953125 Z M -446.660156 151.863281 " clip-rule="nonzero"/></clipPath><clipPath id="c5c5c44b82"><path d="M -7.140625 79.222656 L 66.3125 2.355469 L 103.226562 37.628906 L 29.769531 114.496094 Z M -7.140625 79.222656 " clip-rule="nonzero"/></clipPath><clipPath id="4da4f57c20"><path d="M -15.058594 -8.605469 L 107.210938 -8.609375 L 107.210938 116.316406 L -15.058594 116.320312 Z M -15.058594 -8.605469 " clip-rule="nonzero"/></clipPath><clipPath id="b1ee262fea"><path d="M -308.722656 99.851562 L 59.777344 -285.757812 L 445.386719 82.738281 L 76.890625 468.351562 Z M -308.722656 99.851562 " clip-rule="nonzero"/></clipPath><clipPath id="8a74a93950"><path d="M -119.984375 -96.265625 L 256.121094 -96.265625 L 256.125 279.839844 L -119.984375 279.839844 Z M -119.984375 -96.265625 " clip-rule="nonzero"/></clipPath></defs><rect x="-37.5" width="450" fill="#000000" y="-15" height="179.999997" fill-opacity="1"/><rect x="-37.5" width="450" fill="#000000" y="-15" height="179.999997" fill-opacity="1"/><g transform="matrix(1, 0, 0, 1, 27, -0.000000000000007527)"><g clip-path="url(#1f2e4ef4ab)"><g fill="#00478f" fill-opacity="1"><g transform="translate(0.577009, 116.505968)"><g><path d="M 72.46875 -79.78125 L 72.46875 -61.65625 L 29.25 -15.953125 L 74.453125 -15.953125 L 74.453125 0 L 5.65625 0 L 5.65625 -18.453125 L 48.359375 -63.484375 L 48.359375 -63.828125 L 7.640625 -63.828125 L 7.640625 -79.78125 Z M 72.46875 -79.78125 "/></g></g></g><g fill="#00478f" fill-opacity="1"><g transform="translate(80.691012, 116.505968)"><g><path d="M 47.375 -80.78125 C 59.445312 -80.78125 68.832031 -76.984375 75.53125 -69.390625 C 82.238281 -61.796875 85.648438 -51.351562 85.765625 -38.0625 L 85.765625 -33.90625 L 22.609375 -33.90625 C 22.609375 -27.476562 25.179688 -22.078125 30.328125 -17.703125 C 35.484375 -13.328125 41.773438 -11.082031 49.203125 -10.96875 C 57.398438 -10.96875 64.597656 -14.898438 70.796875 -22.765625 L 82.109375 -14.125 C 73.679688 -3.375 62.046875 2 47.203125 2 C 35.117188 2 25.394531 -1.847656 18.03125 -9.546875 C 10.664062 -17.253906 6.867188 -27.203125 6.640625 -39.390625 C 6.640625 -51.128906 10.4375 -60.90625 18.03125 -68.71875 C 25.625 -76.53125 35.40625 -80.550781 47.375 -80.78125 Z M 69.8125 -45.875 C 69.582031 -53.289062 67.472656 -58.96875 63.484375 -62.90625 C 59.492188 -66.84375 54.007812 -68.8125 47.03125 -68.8125 C 42.382812 -68.8125 38.203125 -67.675781 34.484375 -65.40625 C 30.773438 -63.132812 27.867188 -60.195312 25.765625 -56.59375 C 23.660156 -52.988281 22.609375 -49.414062 22.609375 -45.875 Z M 69.8125 -45.875 "/></g></g><g transform="translate(173.104245, 116.505968)"><g><path d="M 50.1875 -80.78125 C 52.957031 -80.78125 55.175781 -80.445312 56.84375 -79.78125 L 56.171875 -63.65625 C 53.296875 -64.425781 50.804688 -64.8125 48.703125 -64.8125 C 33.960938 -64.8125 26.484375 -56.613281 26.265625 -40.21875 L 26.265625 0 L 11.296875 0 L 11.296875 -78.78125 L 26.265625 -78.78125 L 26.265625 -66.640625 L 26.59375 -66.640625 C 28.582031 -70.859375 31.789062 -74.269531 36.21875 -76.875 C 40.65625 -79.476562 45.3125 -80.78125 50.1875 -80.78125 Z M 50.1875 -80.78125 "/></g></g></g><g fill="#00478f" fill-opacity="1"><g transform="translate(231.610456, 116.505968)"><g><path d="M 49.359375 -80.78125 C 60.992188 -80.78125 70.851562 -76.757812 78.9375 -68.71875 C 87.03125 -60.6875 91.132812 -50.910156 91.25 -39.390625 C 91.25 -27.753906 87.203125 -18.003906 79.109375 -10.140625 C 71.023438 -2.273438 61.109375 1.769531 49.359375 2 C 37.835938 2 28.03125 -1.988281 19.9375 -9.96875 C 11.851562 -17.945312 7.703125 -27.753906 7.484375 -39.390625 C 7.484375 -50.804688 11.5 -60.5 19.53125 -68.46875 C 27.5625 -76.445312 37.503906 -80.550781 49.359375 -80.78125 Z M 23.4375 -39.390625 C 23.4375 -31.296875 25.816406 -24.726562 30.578125 -19.6875 C 35.347656 -14.65625 41.609375 -12.082031 49.359375 -11.96875 C 57.222656 -11.96875 63.484375 -14.488281 68.140625 -19.53125 C 72.796875 -24.570312 75.179688 -31.191406 75.296875 -39.390625 C 75.296875 -47.472656 72.96875 -54.035156 68.3125 -59.078125 C 63.65625 -64.117188 57.285156 -66.695312 49.203125 -66.8125 C 41.328125 -66.8125 35.0625 -64.207031 30.40625 -59 C 25.757812 -53.789062 23.4375 -47.253906 23.4375 -39.390625 Z M 23.4375 -39.390625 "/></g></g></g></g></g><g clip-path="url(#d2260f178c)"><g clip-path="url(#a646a448bc)"><g clip-path="url(#c4e3776dff)"><g clip-path="url(#c5c5c44b82)"><g clip-path="url(#4da4f57c20)"><g clip-path="url(#b1ee262fea)"><g clip-path="url(#8a74a93950)"><path fill="#25a592" d="M 100.664062 36.625 L 100.667969 54.851562 L 57.210938 100.832031 L 102.667969 100.832031 L 102.667969 116.882812 L 33.46875 116.878906 L 33.46875 98.324219 L 76.417969 53.019531 L 76.421875 52.675781 L 35.472656 52.675781 L 35.46875 36.628906 Z M 100.664062 36.625 " fill-opacity="1" fill-rule="nonzero"/></g></g></g></g></g></g></g><path stroke-linecap="butt" transform="matrix(0, 0.75, -0.75, 0, 33.242283, 21.180783)" fill="none" stroke-linejoin="miter" d="M -0.00146025 0.500127 L 130.493339 0.500127 " stroke="#000000" stroke-width="1" stroke-opacity="1" stroke-miterlimit="4"/><path stroke-linecap="butt" transform="matrix(0.518245, -0.542146, 0.542146, 0.518245, 27.305654, 117.11399)" fill="none" stroke-linejoin="miter" d="M -0.000531189 0.503086 L 154.081098 0.502352 " stroke="#000000" stroke-width="1" stroke-opacity="1" stroke-miterlimit="4"/><path stroke-linecap="butt" transform="matrix(0.509975, 0.549932, -0.549932, 0.509975, 274.731462, 39.863683)" fill="none" stroke-linejoin="miter" d="M -0.000964142 0.498133 L 152.09463 0.502499 " stroke="#000000" stroke-width="1" stroke-opacity="1" stroke-miterlimit="4"/><path stroke-linecap="butt" transform="matrix(0, 0.75, -0.75, 0, 227.512108, 36.831464)" fill="none" stroke-linejoin="miter" d="M 0.000756958 0.500519 L 152.094516 0.500519 " stroke="#000000" stroke-width="1" stroke-opacity="1" stroke-miterlimit="4"/><path stroke-linecap="butt" transform="matrix(0.75, 0, 0, 0.75, 96.119873, 82.600128)" fill="none" stroke-linejoin="miter" d="M 0.00162804 0.501913 L 141.267261 0.501913 " stroke="#000000" stroke-width="1" stroke-opacity="1" stroke-miterlimit="4"/></svg>