<svg xmlns="http://www.w3.org/2000/svg" xmlns:xlink="http://www.w3.org/1999/xlink" width="500" zoomAndPan="magnify" viewBox="0 0 375 374.999991" height="500" preserveAspectRatio="xMidYMid meet" version="1.0"><defs><g/><clipPath id="1792e8e9b1"><rect x="0" width="239" y="0" height="375"/></clipPath><clipPath id="6a9b95ca7c"><path d="M 85 68 L 289 68 L 289 298 L 85 298 Z M 85 68 " clip-rule="nonzero"/></clipPath><clipPath id="6990fd1ae6"><path d="M -122.601562 171.726562 L 175.339844 -140.050781 L 486.035156 156.855469 L 188.09375 468.636719 Z M -122.601562 171.726562 " clip-rule="nonzero"/></clipPath><clipPath id="befb2cf017"><path d="M -1322.570312 406.917969 L 24.132812 -1002.324219 L 1433.375 344.375 L 86.671875 1753.621094 Z M -1322.570312 406.917969 " clip-rule="nonzero"/></clipPath><clipPath id="d6eb43e421"><path d="M -33.285156 193.835938 L 182.1875 -31.644531 L 290.464844 71.828125 L 74.992188 297.308594 Z M -33.285156 193.835938 " clip-rule="nonzero"/></clipPath><clipPath id="976d8a78a8"><path d="M -56.507812 -63.796875 L 302.152344 -63.808594 L 302.152344 302.648438 L -56.507812 302.660156 Z M -56.507812 -63.796875 " clip-rule="nonzero"/></clipPath><clipPath id="c461c95823"><path d="M -917.945312 254.351562 L 163.007812 -876.800781 L 1294.164062 204.152344 L 213.210938 1335.304688 Z M -917.945312 254.351562 " clip-rule="nonzero"/></clipPath><clipPath id="e787ffc7b3"><path d="M -364.304688 -320.945312 L 738.972656 -320.949219 L 738.980469 782.328125 L -364.296875 782.332031 Z M -364.304688 -320.945312 " clip-rule="nonzero"/></clipPath></defs><rect x="-37.5" width="450" fill="#0A0F26" y="-37.499999" height="449.999989" fill-opacity="1"/><rect x="-37.5" width="450" fill="#0A0F26" y="-37.499999" height="449.999989" fill-opacity="1"/><g transform="matrix(1, 0, 0, 1, 67, 0)"><g clip-path="url(#1792e8e9b1)"><g fill="#00478f" fill-opacity="1"><g transform="translate(2.610629, 303.789989)"><g><path d="M 213.21875 -234.75 L 213.21875 -181.4375 L 86.078125 -46.953125 L 219.09375 -46.953125 L 219.09375 0 L 16.625 0 L 16.625 -54.28125 L 142.3125 -186.8125 L 142.3125 -187.796875 L 22.5 -187.796875 L 22.5 -234.75 Z M 213.21875 -234.75 "/></g></g></g></g></g><g clip-path="url(#6a9b95ca7c)"><g clip-path="url(#6990fd1ae6)"><g clip-path="url(#befb2cf017)"><g clip-path="url(#d6eb43e421)"><g clip-path="url(#976d8a78a8)"><g clip-path="url(#c461c95823)"><g clip-path="url(#e787ffc7b3)"><path fill="#25a592" d="M 282.945312 68.882812 L 282.96875 122.347656 L 155.484375 257.222656 L 288.828125 257.226562 L 288.832031 304.300781 L 85.835938 304.296875 L 85.835938 249.871094 L 211.828125 116.96875 L 211.835938 115.964844 L 91.714844 115.960938 L 91.710938 68.882812 Z M 282.945312 68.882812 " fill-opacity="1" fill-rule="nonzero"/></g></g></g></g></g></g></g><path stroke-linecap="butt" transform="matrix(0.515148, -0.545089, 0.545089, 0.515148, 68.993114, 303.597374)" fill="none" stroke-linejoin="miter" d="M -0.00118079 3.002077 L 447.212301 2.997965 " stroke="#0A0F26" stroke-width="6" stroke-opacity="1" stroke-miterlimit="4"/></svg>